<svg width="201" height="96" viewBox="0 0 201 96" fill="none" xmlns="http://www.w3.org/2000/svg">
<path d="M82.6072 67.2107L80.2086 81.4455L66.6184 86.3465L55.3944 76.9857L57.7931 62.751L71.3833 57.85L82.6072 67.2107Z" stroke="#14AFAF" stroke-width="4"/>
<path d="M57.3386 39.5003L70.412 43.2396L70.7372 56.8217L57.8345 61.4875L49.5658 50.798L57.3386 39.5003Z" stroke="#14AFAF" stroke-width="4"/>
<path d="M85.2576 5.67145L77.2023 16.6166L85.2576 27.5617L98.3239 23.3706L98.3239 9.86252L85.2576 5.67145Z" stroke="#14AFAF" stroke-width="4"/>
<line y1="-1" x2="17.8169" y2="-1" transform="matrix(0.763449 -0.645869 0.646567 0.762857 71.2842 42.0965)" stroke="white" stroke-opacity="0.2" stroke-width="2" stroke-dasharray="8 8"/>
<path d="M0.48303 8.56712L84.8884 2.89165" stroke="white" stroke-opacity="0.2" stroke-width="2" stroke-dasharray="8 8"/>
<path d="M170.598 42.7691L168.314 56.3228L155.374 60.9894L144.685 52.0751L146.969 38.5214L159.909 33.8548L170.598 42.7691Z" stroke="#14AFAF" stroke-width="4"/>
<path d="M183.477 5.86335L175.825 16.2606L183.477 26.6579L195.891 22.6761L195.891 9.84517L183.477 5.86335Z" stroke="#14AFAF" stroke-width="4"/>
<path d="M101.634 8.27992L180.295 1.86034" stroke="white" stroke-opacity="0.2" stroke-width="2" stroke-dasharray="8 8"/>
<line y1="-1" x2="16.8097" y2="-1" transform="matrix(0.624073 -0.781366 0.78193 0.623366 173.342 42.7917)" stroke="white" stroke-opacity="0.2" stroke-width="2" stroke-dasharray="8 8"/>
</svg>
