<svg width="201" height="96" viewBox="0 0 201 96" fill="none" xmlns="http://www.w3.org/2000/svg">
<path d="M118.465 29.0162L120.864 14.7815L134.454 9.88046L145.678 19.2412L143.28 33.476L129.689 38.377L118.465 29.0162Z" stroke="#14AFAF" stroke-width="4"/>
<path d="M143.734 56.7266L130.661 52.9873L130.335 39.4052L143.238 34.7394L151.507 45.429L143.734 56.7266Z" stroke="#14AFAF" stroke-width="4"/>
<path d="M115.815 90.5555L123.87 79.6104L115.815 68.6653L102.749 72.8563L102.749 86.3644L115.815 90.5555Z" stroke="#14AFAF" stroke-width="4"/>
<line y1="-1" x2="17.8169" y2="-1" transform="matrix(-0.763449 0.645869 -0.646567 -0.762857 129.788 54.1305)" stroke="white" stroke-opacity="0.2" stroke-width="2" stroke-dasharray="8 8"/>
<path d="M200.59 87.6598L116.184 93.3353" stroke="white" stroke-opacity="0.2" stroke-width="2" stroke-dasharray="8 8"/>
<path d="M30.475 53.4579L32.7589 39.9041L45.699 35.2375L56.3875 44.1518L54.1036 57.7056L41.1636 62.3721L30.475 53.4579Z" stroke="#14AFAF" stroke-width="4"/>
<path d="M17.5953 90.3636L25.2474 79.9663L17.5953 69.569L5.18131 73.5508L5.18131 86.3818L17.5953 90.3636Z" stroke="#14AFAF" stroke-width="4"/>
<path d="M99.4385 87.947L20.7777 94.3666" stroke="white" stroke-opacity="0.2" stroke-width="2" stroke-dasharray="8 8"/>
<line y1="-1" x2="16.8097" y2="-1" transform="matrix(-0.624073 0.781366 -0.78193 -0.623366 27.7308 53.4353)" stroke="white" stroke-opacity="0.2" stroke-width="2" stroke-dasharray="8 8"/>
</svg>
