<svg width="355" height="55" viewBox="0 0 355 55" fill="none" xmlns="http://www.w3.org/2000/svg">
<path d="M6.63564 43.7134C6.21964 43.7134 5.86764 43.5854 5.57964 43.3294C5.32364 43.0414 5.19564 42.6894 5.19564 42.2734V7.66541C5.19564 7.24941 5.32364 6.91341 5.57964 6.65741C5.86764 6.36941 6.21964 6.22541 6.63564 6.22541C7.27564 6.22541 7.70764 6.46541 7.93164 6.94541L24.0596 38.8174L39.9956 6.94541C40.2836 6.46541 40.7156 6.22541 41.2916 6.22541C41.7076 6.22541 42.0436 6.36941 42.2996 6.65741C42.5556 6.91341 42.6836 7.24941 42.6836 7.66541V42.2734C42.6836 42.6894 42.5556 43.0414 42.2996 43.3294C42.0436 43.5854 41.7076 43.7134 41.2916 43.7134C40.8756 43.7134 40.5236 43.5854 40.2356 43.3294C39.9476 43.0414 39.8036 42.6894 39.8036 42.2734V12.8494L25.2116 42.5614C24.9876 43.0094 24.5716 43.2334 23.9636 43.2334C23.3876 43.2334 22.9396 42.9294 22.6196 42.3214L8.07564 13.2814V42.2734C8.07564 42.6894 7.93164 43.0414 7.64364 43.3294C7.38764 43.5854 7.05164 43.7134 6.63564 43.7134ZM79.233 44.1934C76.481 44.1934 73.937 43.7134 71.601 42.7534C69.265 41.7934 67.217 40.4494 65.457 38.7214C63.729 36.9614 62.385 34.9134 61.425 32.5774C60.465 30.2414 59.985 27.6974 59.985 24.9454C59.985 22.1934 60.465 19.6654 61.425 17.3614C62.385 15.0254 63.729 12.9934 65.457 11.2654C67.217 9.50541 69.265 8.14541 71.601 7.18541C73.937 6.22541 76.481 5.74541 79.233 5.74541C81.985 5.74541 84.513 6.22541 86.817 7.18541C89.153 8.14541 91.185 9.50541 92.913 11.2654C94.673 12.9934 96.033 15.0254 96.993 17.3614C97.953 19.6654 98.433 22.1934 98.433 24.9454C98.433 27.6974 97.953 30.2414 96.993 32.5774C96.033 34.9134 94.673 36.9614 92.913 38.7214C91.185 40.4494 89.153 41.7934 86.817 42.7534C84.513 43.7134 81.985 44.1934 79.233 44.1934ZM79.233 41.3134C81.537 41.3134 83.681 40.9134 85.665 40.1134C87.649 39.2814 89.377 38.1294 90.849 36.6574C92.353 35.1534 93.505 33.4094 94.305 31.4254C95.137 29.4414 95.553 27.2814 95.553 24.9454C95.553 22.6414 95.137 20.4974 94.305 18.5134C93.505 16.5294 92.353 14.8014 90.849 13.3294C89.377 11.8254 87.649 10.6734 85.665 9.87341C83.681 9.04141 81.537 8.62541 79.233 8.62541C76.897 8.62541 74.737 9.04141 72.753 9.87341C70.769 10.6734 69.025 11.8254 67.521 13.3294C66.049 14.8014 64.897 16.5294 64.065 18.5134C63.265 20.4974 62.865 22.6414 62.865 24.9454C62.865 27.2814 63.265 29.4414 64.065 31.4254C64.897 33.4094 66.049 35.1534 67.521 36.6574C69.025 38.1294 70.769 39.2814 72.753 40.1134C74.737 40.9134 76.897 41.3134 79.233 41.3134ZM117.148 43.7134C116.732 43.7134 116.38 43.5854 116.092 43.3294C115.836 43.0414 115.708 42.6894 115.708 42.2734V7.66541C115.708 7.24941 115.836 6.91341 116.092 6.65741C116.38 6.36941 116.732 6.22541 117.148 6.22541C117.596 6.22541 117.964 6.38541 118.252 6.70541L142.636 38.4334V7.66541C142.636 7.24941 142.764 6.91341 143.02 6.65741C143.308 6.36941 143.66 6.22541 144.076 6.22541C144.46 6.22541 144.796 6.36941 145.084 6.65741C145.372 6.91341 145.516 7.24941 145.516 7.66541V42.2734C145.516 42.6894 145.372 43.0414 145.084 43.3294C144.796 43.5854 144.46 43.7134 144.076 43.7134C143.628 43.7134 143.276 43.5694 143.02 43.2814L118.588 11.5054V42.2734C118.588 42.6894 118.444 43.0414 118.156 43.3294C117.9 43.5854 117.564 43.7134 117.148 43.7134Z" fill="white"/>
<path d="M231.663 43.7134C231.247 43.7134 230.895 43.5854 230.607 43.3294C230.351 43.0414 230.223 42.6894 230.223 42.2734V7.66541C230.223 7.24941 230.351 6.91341 230.607 6.65741C230.895 6.36941 231.247 6.22541 231.663 6.22541C232.303 6.22541 232.735 6.46541 232.959 6.94541L249.087 38.8174L265.023 6.94541C265.311 6.46541 265.743 6.22541 266.319 6.22541C266.735 6.22541 267.071 6.36941 267.327 6.65741C267.583 6.91341 267.711 7.24941 267.711 7.66541V42.2734C267.711 42.6894 267.583 43.0414 267.327 43.3294C267.071 43.5854 266.735 43.7134 266.319 43.7134C265.903 43.7134 265.551 43.5854 265.263 43.3294C264.975 43.0414 264.831 42.6894 264.831 42.2734V12.8494L250.239 42.5614C250.015 43.0094 249.599 43.2334 248.991 43.2334C248.415 43.2334 247.967 42.9294 247.647 42.3214L233.103 13.2814V42.2734C233.103 42.6894 232.959 43.0414 232.671 43.3294C232.415 43.5854 232.079 43.7134 231.663 43.7134ZM288.373 43.7134C287.957 43.7134 287.605 43.5854 287.317 43.3294C287.061 43.0414 286.933 42.6894 286.933 42.2734V7.66541C286.933 7.24941 287.061 6.91341 287.317 6.65741C287.605 6.36941 287.957 6.22541 288.373 6.22541H311.461C311.845 6.22541 312.181 6.36941 312.469 6.65741C312.757 6.91341 312.901 7.24941 312.901 7.66541C312.901 8.04941 312.757 8.38541 312.469 8.67341C312.181 8.96141 311.845 9.10541 311.461 9.10541H289.813V23.5054H305.701C306.117 23.5054 306.453 23.6494 306.709 23.9374C306.997 24.1934 307.141 24.5294 307.141 24.9454C307.141 25.3614 306.997 25.7134 306.709 26.0014C306.453 26.2894 306.117 26.4334 305.701 26.4334H289.813V40.8334H311.461C311.845 40.8334 312.181 40.9774 312.469 41.2654C312.757 41.5534 312.901 41.8894 312.901 42.2734C312.901 42.6894 312.757 43.0414 312.469 43.3294C312.181 43.5854 311.845 43.7134 311.461 43.7134H288.373ZM330.879 43.7134C330.463 43.7134 330.111 43.5854 329.823 43.3294C329.567 43.0414 329.439 42.6894 329.439 42.2734V7.66541C329.439 7.21741 329.567 6.86541 329.823 6.60941C330.111 6.35341 330.463 6.22541 330.879 6.22541H340.047C342.383 6.22541 344.447 6.72141 346.239 7.71341C348.063 8.67341 349.487 10.0014 350.511 11.6974C351.535 13.3934 352.047 15.3614 352.047 17.6014C352.047 20.2254 351.311 22.4974 349.839 24.4174C348.367 26.3054 346.415 27.6014 343.983 28.3054L352.239 41.5054C352.655 42.1454 352.735 42.6734 352.479 43.0894C352.255 43.5054 351.775 43.7134 351.039 43.7134C350.687 43.7134 350.415 43.6494 350.223 43.5214C350.063 43.3614 349.903 43.1694 349.743 42.9454L340.911 28.8334C340.623 28.8334 340.335 28.8334 340.047 28.8334H332.319V42.2734C332.319 42.6894 332.191 43.0414 331.935 43.3294C331.679 43.5854 331.327 43.7134 330.879 43.7134ZM332.319 25.9534H340.047C341.839 25.9534 343.407 25.6014 344.751 24.8974C346.127 24.1614 347.199 23.1694 347.967 21.9214C348.767 20.6734 349.167 19.2334 349.167 17.6014C349.167 15.9374 348.767 14.4654 347.967 13.1854C347.199 11.9054 346.127 10.9134 344.751 10.2094C343.407 9.47341 341.839 9.10541 340.047 9.10541H332.319V25.9534Z" fill="white"/>
<path d="M188.774 44.1934C186.022 44.1934 183.478 43.7134 181.142 42.7534C178.806 41.7934 176.758 40.4494 174.998 38.7214C173.27 36.9614 171.926 34.9134 170.966 32.5774C170.006 30.2414 169.526 27.6974 169.526 24.9454C169.526 22.1934 170.006 19.6654 170.966 17.3614C171.926 15.0254 173.27 12.9934 174.998 11.2654C176.758 9.50541 178.806 8.14541 181.142 7.18541C183.478 6.22541 186.022 5.74541 188.774 5.74541C191.526 5.74541 194.054 6.22541 196.358 7.18541C198.694 8.14541 200.726 9.50541 202.454 11.2654C204.214 12.9934 205.574 15.0254 206.534 17.3614C207.494 19.6654 207.974 22.1934 207.974 24.9454C207.974 27.6974 207.494 30.2414 206.534 32.5774C205.574 34.9134 204.214 36.9614 202.454 38.7214C200.726 40.4494 198.694 41.7934 196.358 42.7534C194.054 43.7134 191.526 44.1934 188.774 44.1934ZM188.774 41.3134C191.078 41.3134 193.222 40.9134 195.206 40.1134C197.19 39.2814 198.918 38.1294 200.39 36.6574C201.894 35.1534 203.046 33.4094 203.846 31.4254C204.678 29.4414 205.094 27.2814 205.094 24.9454C205.094 22.6414 204.678 20.4974 203.846 18.5134C203.046 16.5294 201.894 14.8014 200.39 13.3294C198.918 11.8254 197.19 10.6734 195.206 9.87341C193.222 9.04141 191.078 8.62541 188.774 8.62541C186.438 8.62541 184.278 9.04141 182.294 9.87341C180.31 10.6734 178.566 11.8254 177.062 13.3294C175.59 14.8014 174.438 16.5294 173.606 18.5134C172.806 20.4974 172.406 22.6414 172.406 24.9454C172.406 27.2814 172.806 29.4414 173.606 31.4254C174.438 33.4094 175.59 35.1534 177.062 36.6574C178.566 38.1294 180.31 39.2814 182.294 40.1134C184.278 40.9134 186.438 41.3134 188.774 41.3134Z" fill="#14AFAF"/>
<path d="M166.646 49.7134H210.854V52.1134H166.646V49.7134Z" fill="#14AFAF"/>
</svg>
