<svg width="395" height="81" viewBox="0 0 395 81" fill="none" xmlns="http://www.w3.org/2000/svg">
<path d="M6.63567 59.7134C6.21967 59.7134 5.86767 59.5854 5.57967 59.3294C5.32367 59.0414 5.19567 58.6894 5.19567 58.2734V23.6654C5.19567 23.2494 5.32367 22.9134 5.57967 22.6574C5.86767 22.3694 6.21967 22.2254 6.63567 22.2254C7.27567 22.2254 7.70767 22.4654 7.93167 22.9454L24.0597 54.8174L39.9957 22.9454C40.2837 22.4654 40.7157 22.2254 41.2917 22.2254C41.7077 22.2254 42.0437 22.3694 42.2997 22.6574C42.5557 22.9134 42.6837 23.2494 42.6837 23.6654V58.2734C42.6837 58.6894 42.5557 59.0414 42.2997 59.3294C42.0437 59.5854 41.7077 59.7134 41.2917 59.7134C40.8757 59.7134 40.5237 59.5854 40.2357 59.3294C39.9477 59.0414 39.8037 58.6894 39.8037 58.2734V28.8494L25.2117 58.5614C24.9877 59.0094 24.5717 59.2334 23.9637 59.2334C23.3877 59.2334 22.9397 58.9294 22.6197 58.3214L8.07567 29.2814V58.2734C8.07567 58.6894 7.93167 59.0414 7.64367 59.3294C7.38767 59.5854 7.05167 59.7134 6.63567 59.7134ZM79.233 60.1934C76.481 60.1934 73.937 59.7134 71.601 58.7534C69.265 57.7934 67.217 56.4494 65.457 54.7214C63.729 52.9614 62.385 50.9134 61.425 48.5774C60.465 46.2414 59.985 43.6974 59.985 40.9454C59.985 38.1934 60.465 35.6654 61.425 33.3614C62.385 31.0254 63.729 28.9934 65.457 27.2654C67.217 25.5054 69.265 24.1454 71.601 23.1854C73.937 22.2254 76.481 21.7454 79.233 21.7454C81.985 21.7454 84.513 22.2254 86.817 23.1854C89.153 24.1454 91.185 25.5054 92.913 27.2654C94.673 28.9934 96.033 31.0254 96.993 33.3614C97.953 35.6654 98.433 38.1934 98.433 40.9454C98.433 43.6974 97.953 46.2414 96.993 48.5774C96.033 50.9134 94.673 52.9614 92.913 54.7214C91.185 56.4494 89.153 57.7934 86.817 58.7534C84.513 59.7134 81.985 60.1934 79.233 60.1934ZM79.233 57.3134C81.537 57.3134 83.681 56.9134 85.665 56.1134C87.649 55.2814 89.377 54.1294 90.849 52.6574C92.353 51.1534 93.505 49.4094 94.305 47.4254C95.137 45.4414 95.553 43.2814 95.553 40.9454C95.553 38.6414 95.137 36.4974 94.305 34.5134C93.505 32.5294 92.353 30.8014 90.849 29.3294C89.377 27.8254 87.649 26.6734 85.665 25.8734C83.681 25.0414 81.537 24.6254 79.233 24.6254C76.897 24.6254 74.737 25.0414 72.753 25.8734C70.769 26.6734 69.025 27.8254 67.521 29.3294C66.049 30.8014 64.897 32.5294 64.065 34.5134C63.265 36.4974 62.865 38.6414 62.865 40.9454C62.865 43.2814 63.265 45.4414 64.065 47.4254C64.897 49.4094 66.049 51.1534 67.521 52.6574C69.025 54.1294 70.769 55.2814 72.753 56.1134C74.737 56.9134 76.897 57.3134 79.233 57.3134ZM117.148 59.7134C116.732 59.7134 116.38 59.5854 116.092 59.3294C115.836 59.0414 115.708 58.6894 115.708 58.2734V23.6654C115.708 23.2494 115.836 22.9134 116.092 22.6574C116.38 22.3694 116.732 22.2254 117.148 22.2254C117.596 22.2254 117.964 22.3854 118.252 22.7054L142.636 54.4334V23.6654C142.636 23.2494 142.764 22.9134 143.02 22.6574C143.308 22.3694 143.66 22.2254 144.076 22.2254C144.46 22.2254 144.796 22.3694 145.084 22.6574C145.372 22.9134 145.516 23.2494 145.516 23.6654V58.2734C145.516 58.6894 145.372 59.0414 145.084 59.3294C144.796 59.5854 144.46 59.7134 144.076 59.7134C143.628 59.7134 143.276 59.5694 143.02 59.2814L118.588 27.5054V58.2734C118.588 58.6894 118.444 59.0414 118.156 59.3294C117.9 59.5854 117.564 59.7134 117.148 59.7134Z" fill="white"/>
<path d="M246.349 40.5049C246.349 61.3471 229.453 78.243 208.611 78.243C187.769 78.243 170.873 61.3471 170.873 40.5049C170.873 19.6626 187.769 2.76668 208.611 2.76668C229.453 2.76668 246.349 19.6626 246.349 40.5049Z" stroke="#14AFAF" stroke-width="5"/>
<path d="M271.663 59.7134C271.247 59.7134 270.895 59.5854 270.607 59.3294C270.351 59.0414 270.223 58.6894 270.223 58.2734V23.6654C270.223 23.2494 270.351 22.9134 270.607 22.6574C270.895 22.3694 271.247 22.2254 271.663 22.2254C272.303 22.2254 272.735 22.4654 272.959 22.9454L289.087 54.8174L305.023 22.9454C305.311 22.4654 305.743 22.2254 306.319 22.2254C306.735 22.2254 307.071 22.3694 307.327 22.6574C307.583 22.9134 307.711 23.2494 307.711 23.6654V58.2734C307.711 58.6894 307.583 59.0414 307.327 59.3294C307.071 59.5854 306.735 59.7134 306.319 59.7134C305.903 59.7134 305.551 59.5854 305.263 59.3294C304.975 59.0414 304.831 58.6894 304.831 58.2734V28.8494L290.239 58.5614C290.015 59.0094 289.599 59.2334 288.991 59.2334C288.415 59.2334 287.967 58.9294 287.647 58.3214L273.103 29.2814V58.2734C273.103 58.6894 272.959 59.0414 272.671 59.3294C272.415 59.5854 272.079 59.7134 271.663 59.7134ZM328.373 59.7134C327.957 59.7134 327.605 59.5854 327.317 59.3294C327.061 59.0414 326.933 58.6894 326.933 58.2734V23.6654C326.933 23.2494 327.061 22.9134 327.317 22.6574C327.605 22.3694 327.957 22.2254 328.373 22.2254H351.461C351.845 22.2254 352.181 22.3694 352.469 22.6574C352.757 22.9134 352.901 23.2494 352.901 23.6654C352.901 24.0494 352.757 24.3854 352.469 24.6734C352.181 24.9614 351.845 25.1054 351.461 25.1054H329.813V39.5054H345.701C346.117 39.5054 346.453 39.6494 346.709 39.9374C346.997 40.1934 347.141 40.5294 347.141 40.9454C347.141 41.3614 346.997 41.7134 346.709 42.0014C346.453 42.2894 346.117 42.4334 345.701 42.4334H329.813V56.8334H351.461C351.845 56.8334 352.181 56.9774 352.469 57.2654C352.757 57.5534 352.901 57.8894 352.901 58.2734C352.901 58.6894 352.757 59.0414 352.469 59.3294C352.181 59.5854 351.845 59.7134 351.461 59.7134H328.373ZM370.879 59.7134C370.463 59.7134 370.111 59.5854 369.823 59.3294C369.567 59.0414 369.439 58.6894 369.439 58.2734V23.6654C369.439 23.2174 369.567 22.8654 369.823 22.6094C370.111 22.3534 370.463 22.2254 370.879 22.2254H380.047C382.383 22.2254 384.447 22.7214 386.239 23.7134C388.063 24.6734 389.487 26.0014 390.511 27.6974C391.535 29.3934 392.047 31.3614 392.047 33.6014C392.047 36.2254 391.311 38.4974 389.839 40.4174C388.367 42.3054 386.415 43.6014 383.983 44.3054L392.239 57.5054C392.655 58.1454 392.735 58.6734 392.479 59.0894C392.255 59.5054 391.775 59.7134 391.039 59.7134C390.687 59.7134 390.415 59.6494 390.223 59.5214C390.063 59.3614 389.903 59.1694 389.743 58.9454L380.911 44.8334C380.623 44.8334 380.335 44.8334 380.047 44.8334H372.319V58.2734C372.319 58.6894 372.191 59.0414 371.935 59.3294C371.679 59.5854 371.327 59.7134 370.879 59.7134ZM372.319 41.9534H380.047C381.839 41.9534 383.407 41.6014 384.751 40.8974C386.127 40.1614 387.199 39.1694 387.967 37.9214C388.767 36.6734 389.167 35.2334 389.167 33.6014C389.167 31.9374 388.767 30.4654 387.967 29.1854C387.199 27.9054 386.127 26.9134 384.751 26.2094C383.407 25.4734 381.839 25.1054 380.047 25.1054H372.319V41.9534Z" fill="white"/>
</svg>
