<svg width="96" height="201" viewBox="0 0 96 201" fill="none" xmlns="http://www.w3.org/2000/svg">
<path d="M67.2716 118.605L81.5063 121.003L86.4073 134.593L77.0466 145.817L62.8119 143.419L57.9108 129.829L67.2716 118.605Z" stroke="#14AFAF" stroke-width="4"/>
<path d="M39.5612 143.873L43.3005 130.8L56.8826 130.475L61.5484 143.377L50.8588 151.646L39.5612 143.873Z" stroke="#14AFAF" stroke-width="4"/>
<path d="M5.73233 115.954L16.6774 124.009L27.6225 115.954L23.4315 102.888L9.9234 102.888L5.73233 115.954Z" stroke="#14AFAF" stroke-width="4"/>
<line y1="-1" x2="17.8169" y2="-1" transform="matrix(-0.645869 -0.763449 0.762857 -0.646567 42.1573 129.927)" stroke="white" stroke-opacity="0.2" stroke-width="2" stroke-dasharray="8 8"/>
<path d="M8.62805 200.729L2.95259 116.323" stroke="white" stroke-opacity="0.2" stroke-width="2" stroke-dasharray="8 8"/>
<path d="M42.8299 30.6141L56.3837 32.8981L61.0503 45.8381L52.136 56.5267L38.5822 54.2428L33.9157 41.3027L42.8299 30.6141Z" stroke="#14AFAF" stroke-width="4"/>
<path d="M5.92423 17.7344L16.3215 25.3866L26.7188 17.7344L22.737 5.32048L9.90606 5.32047L5.92423 17.7344Z" stroke="#14AFAF" stroke-width="4"/>
<path d="M8.34082 99.5776L1.92125 20.9168" stroke="white" stroke-opacity="0.2" stroke-width="2" stroke-dasharray="8 8"/>
<line y1="-1" x2="16.8097" y2="-1" transform="matrix(-0.781366 -0.624073 0.623366 -0.78193 42.8525 27.8699)" stroke="white" stroke-opacity="0.2" stroke-width="2" stroke-dasharray="8 8"/>
</svg>
