<svg width="96" height="201" viewBox="0 0 96 201" fill="none" xmlns="http://www.w3.org/2000/svg">
<path d="M29.1247 82.8528L14.89 80.4542L9.98902 66.864L19.3498 55.64L33.5845 58.0387L38.4855 71.6289L29.1247 82.8528Z" stroke="#14AFAF" stroke-width="4"/>
<path d="M56.8351 57.5843L53.0958 70.6577L39.5138 70.9829L34.8479 58.0802L45.5375 49.8115L56.8351 57.5843Z" stroke="#14AFAF" stroke-width="4"/>
<path d="M90.664 85.5033L79.7189 77.4479L68.7738 85.5033L72.9649 98.5696H86.473L90.664 85.5033Z" stroke="#14AFAF" stroke-width="4"/>
<line y1="-1" x2="17.8169" y2="-1" transform="matrix(0.645869 0.763449 -0.762857 0.646567 54.239 71.5299)" stroke="white" stroke-opacity="0.2" stroke-width="2" stroke-dasharray="8 8"/>
<path d="M87.7683 0.728696L93.4438 85.134" stroke="white" stroke-opacity="0.2" stroke-width="2" stroke-dasharray="8 8"/>
<path d="M53.5664 170.843L40.0126 168.559L35.3461 155.619L44.2604 144.931L57.8141 147.215L62.4807 160.155L53.5664 170.843Z" stroke="#14AFAF" stroke-width="4"/>
<path d="M90.4721 183.723L80.0749 176.071L69.6776 183.723L73.6594 196.137H86.4903L90.4721 183.723Z" stroke="#14AFAF" stroke-width="4"/>
<path d="M88.0555 101.88L94.4751 180.541" stroke="white" stroke-opacity="0.2" stroke-width="2" stroke-dasharray="8 8"/>
<line y1="-1" x2="16.8097" y2="-1" transform="matrix(0.781366 0.624073 -0.623366 0.78193 53.5438 173.588)" stroke="white" stroke-opacity="0.2" stroke-width="2" stroke-dasharray="8 8"/>
</svg>
